<?xml version="1.0" encoding="UTF-8"?>
<svg id="Layer_2" data-name="Layer 2" xmlns="http://www.w3.org/2000/svg" viewBox="0 0 248.92 141.55">
  <defs>
    <style>
      .cls-1 {
        fill: #c4c4c4;
        stroke: #333434;
        stroke-linecap: round;
        stroke-linejoin: round;
        stroke-width: 5.26px;
      }

      .cls-2 {
        fill: #b7b8b8;
        stroke: #616161;
        stroke-miterlimit: 10;
        stroke-width: 2.43px;
      }

      .cls-3 {
        fill: #969084;
      }

      .cls-3, .cls-4, .cls-5, .cls-6, .cls-7, .cls-8, .cls-9 {
        stroke-width: 0px;
      }

      .cls-4 {
        fill: #cb8d1f;
      }

      .cls-5 {
        fill: #d8d8d9;
      }

      .cls-6 {
        fill: #c38016;
      }

      .cls-7 {
        fill: #9f9e9f;
      }

      .cls-8 {
        fill: #054828;
      }

      .cls-9 {
        fill: #035c3c;
      }
    </style>
  </defs>
  <g id="bg">
    <g>
      <path class="cls-7" d="m57.51,105.98c1.82.08,3.64.15,5.47.13,13.3-.17,26.49,1.07,39.81,1.19,13.96.13,27.92-.15,41.86-.84,6.48-.32,12.98-.73,19.44-.19,5.43.45,10.8,1.58,16.24,1.91,4.99.31,9.99-.05,14.99-.08,4.62-.03,9.24.21,13.86.45,7.23.38,14.47.7,21.71.79,5.29.06,10.41.72,15.73.62,2.77-.04,2.48,9.34,1.91,11.29.14,4-6.45,8.77-8.38,11.39-1.44,1.95-3.16,6.12-5.59,6.32-.57.05-1.12-.19-1.65-.47-1.69-.89-3.23-2.19-4.92-3.09-2.88-1.53-5.04-.15-7.92-.15-3.49,0-6.98-.74-10.43-1.32-21.92-3.71-44.31-2.38-66.53-2.65-42.96-.51-85.83-7.03-128.73-4.71-2.45.13-5.13.22-7.07-1.29-1.56-1.22-1.92-3.32-3.2-4.58-1.18-1.16-2.97-1.23-3.81-3,3.62-1.93,7.25-2.2,11.02-3.34,5.41-1.63,10.51-3.69,16.19-3.74,5.56-.04,10.16-2.78,15.48-4.08,1.17-.27,2.37-.43,3.57-.55,3.67-.36,7.29-.15,10.93.01Z"/>
      <path class="cls-5" d="m235.98,141.55c0-.26-13.2-.7-14.05-.73-3.46-.12-7.03.18-10.44-.75-3.26-.89-5.79.11-9.11.19-4.28.11-8.59-.17-12.88-.3-8.27-.24-16.53-.59-24.79-1.34-8.69-.78-17.29-.92-24.55-.94-8.76-.04-17.52-.22-26.28-.49-3.91-.12-7.63-.36-11.39-1.32-3.41-.87-6.61.54-10.01.53-4.61-.01-9.23-.4-13.84-.6,0,0-9.23-.4-9.23-.4-11.99-.51-23.97-1-35.97-1.25-2.31-.05-4.62-.05-6.92-.05-3.36,0-6.72,0-10.08-.15-2.38-.11-4.74-.28-7.1-.45-3.12-.23-6.24-.45-9.35-.53l.08-12.5c3.2.08,6.4.31,9.61.54,2.31.16,4.63.33,6.95.44,3.28.15,6.54.14,9.81.15,3.48,0,6.92.7,10.38,1.01,3.06.28,5.88-.71,8.96-.62,7.93.22,15.87.58,23.8.91l9.23.4c20.1.88,40.89,1.78,61.3,1.87,4.47.02,9.08,2.11,13.53,1.35,3.89-.66,7.51-.74,11.51-.38,12.33,1.1,25.03,1.36,37.32,1.61,11.09.21,22.57.45,33.85,1.31l-.36,12.48Z"/>
      <g>
        <path class="cls-8" d="m202.24,70.47c-.22.31-1.5,2.62-2.76,4.85-.56,10.61-8.28,23.38-6.29,33.22,2.12-2.17,4.22-5.41,6.02-8.74,3.34-6.2,6.49-12.68,8.65-19.76.44-1.44,2.86-16.19,3.05-16.26-2.99,1.11-6.54,3.65-8.66,6.7Z"/>
        <path class="cls-9" d="m199.48,75.32c-1.31,2.32-2.6,4.56-2.64,4.4-2.31-8.52-.88-19.71-3.16-29.02-3.56,5.23-6.94,13.76-9.14,22.87-1.3,5.38-2.2,10.96-2.48,16.2l.73-9.96c-1.02-2.57-2.61-4.74-4.52-6.17-.51,5.92,1.06,10,2.48,15.33,1.15,4.29,1.09,8.58,2.01,13.02,2.27,10.89,6.4,10.69,10.45,6.55-1.99-9.84,5.73-22.61,6.29-33.22Z"/>
        <path class="cls-6" d="m200.91,130.69c-1.39.28-2.72.49-3.98.6,1.39-.02,2.73-.21,3.98-.6Z"/>
        <path class="cls-6" d="m191.17,98.73c-4-.08-8.1.43-10.83,2.05-4.3,2.57-8.33,7.61-8.37,14.22-.07,10.49,7.58,15.11,14.31,15.38,1.99.08,4.26.44,6.58.69-1.47-.37-2.77-1.1-3.81-2.49-7.54-10.16-2.49-20,2.11-29.85Z"/>
        <path class="cls-4" d="m196.92,131.29c1.26-.12,2.59-.33,3.98-.6.79-.25,1.54-.56,2.23-1.02,3.96-2.61,7.49-7.55,7.53-13.67.05-7.34-5.57-14.78-10.95-16.18-2.28-.59-5.38-1.02-8.54-1.09-4.61,9.85-9.65,19.69-2.11,29.85,1.04,1.4,2.34,2.12,3.81,2.49,1.36.14,2.73.24,4.06.22Z"/>
      </g>
      <g>
        <path class="cls-2" d="m102.39,12.11c-.01,2.29-.05,4.16-.05,4.52-.12,12.03-1.28,24.62-.61,36.65.44,8,.38,15.99.41,24,.03,9.24-.45,18.47-.23,27.71.17,6.89.61,13.79.28,20.68-.01.22-3.15-.41-3.51-.45-5.58-.54-11.15-.03-16.73-.13-5.45-.1-10.88-.38-16.33-.11-10.74.54-21.52.67-32.26-.42-.38-14.39-.45-28.78-.28-43.17.08-7.19.53-14.38.72-21.56.18-6.78.51-13.55.6-20.32-.05-11.78-1.21-22.81.43-34.47.09-.65-.15-3.04.3-3.53.49-.54,3.12.02,3.7.04,9.97.36,19.36-.81,29.32-.11,6.84.48,14.6-.13,21.44.22,1.96.1,3.91.19,5.86.23,2.17.05,4.35.89,6.52.41.42-.09.46,5.55.43,9.79Z"/>
        <path class="cls-3" d="m86.89,99.67c3.88-3.01,5.28-9.83,6.38-15.21,1.09-5.37,3.69-16.33,1.81-21.91-1.73-5.14-9.22-2.31-12.1.13-.49-5.32-3.69-36.09-10.71-23.22-2.33-5.94-1.48-23.33-10.56-16.09-5.77,4.6-3.86,19.05-1.31,25.62-3.48-4.77-10.41-5.13-10.03,2.94.4,8.59,5.14,13.61,8.99,19.64-3.86-4.09-9.79-4.69-8.94,4.11.71,7.31,7.85,11.64,12.38,14.2,8.57,4.83,14.2,9.24,14.1,22.34.43-5.76,6.54-7.71,9.99-12.55Z"/>
      </g>
      <path class="cls-1" d="m86.05,47.43c-.02,1.5-.02,2.73-.03,2.97-.08,7.89-.09,15.79-.61,23.66-.35,5.23-.58,10.47-.7,15.72-.13,6.06.03,12.13-.21,18.18-.18,4.51-.51,9.02-.41,13.55,0,.15,1.78-.15,1.99-.16,3.15-.14,6.29.41,9.44.56,3.07.15,6.14.17,9.21.56,6.05.77,12.13,1.27,18.2.97.39-9.42.6-18.86.68-28.3.04-4.72.05-9.44.03-14.16-.02-4.45-.12-8.9-.1-13.35.17-7.73,1.29-15.78.51-23.5-.04-.43.12-1.99-.12-2.33-.27-.37-1.76-.11-2.09-.12-5.63-.15-11.24-.41-16.87-.34-3.87.05-7.72-.24-11.58-.28-1.11-.01-2.21-.03-3.31-.07-1.23-.05-2.47.42-3.68.02-.23-.08-.33,3.62-.36,6.41Z"/>
    </g>
  </g>
</svg>