<?xml version="1.0" encoding="UTF-8"?>
<svg id="Layer_2" data-name="Layer 2" xmlns="http://www.w3.org/2000/svg" viewBox="0 0 311.18 239.64">
  <defs>
    <style>
      .cls-1 {
        stroke-width: .23px;
      }

      .cls-1, .cls-2 {
        fill: none;
        stroke: #181919;
        stroke-linecap: round;
        stroke-linejoin: round;
      }

      .cls-2 {
        stroke-width: .32px;
      }

      .cls-3 {
        fill: #40694b;
      }

      .cls-3, .cls-4, .cls-5, .cls-6, .cls-7, .cls-8, .cls-9, .cls-10, .cls-11 {
        stroke-width: 0px;
      }

      .cls-4 {
        fill: #c48220;
      }

      .cls-5 {
        fill: #d18f20;
      }

      .cls-6 {
        fill: #dd9b2c;
      }

      .cls-7 {
        fill: #d8d8d9;
      }

      .cls-8 {
        fill: #bcbcbc;
      }

      .cls-9 {
        fill: #ac6e22;
      }

      .cls-10 {
        fill: #b73e4b;
      }

      .cls-11 {
        fill: #b8771e;
      }
    </style>
  </defs>
  <g id="bg">
    <g>
      <g>
        <path class="cls-11" d="m23.95,181.86c14.57,5.68,30.2,10.15,45.81,14.34,10.52,2.82,20.14,7.87,30.46,10.63,9.95,2.66,20.29,4.2,30.15,7.16,21.26,6.38,41.58,14.44,62.52,20.43,5.51,1.58,11.19,3.02,17.01,2.61,7.54-.54,14.52-4.14,21.2-7.65,13.35-7.01,26.63-13.98,39.86-20.92,9.85-5.17,37.15-11.56,31.99-25.1-.21-.56-.48-1.13-.98-1.48-.75-.52-1.78-.4-2.72-.28-16.26,2.09-27.79-3.22-43.02-6.73-13.17-3.04-26.88-3.8-40.4-4.32-32.93-1.28-65.41-1.24-97.35.06-16.68.68-33.24,1.71-49.64,3.69-8.01.97-15.99,2.16-23.9,3.66-6.94,1.31-14.15,3.99-20.99,3.92Z"/>
        <path class="cls-11" d="m302.97,135.63c-.02-.97-.06-2.12-.7-3-.64-.87-1.75-1.58-2.85-2.14-8.23-4.22-18.13-9.17-24.17-14.77-6-5.56-10.31-7.37-17.52-11.25-7.15-3.85-15.67-7.73-23.9-10.35-1.74-.55-3.73-1.06-5.5-1.55-8.18,29.67-15.6,59.95-21.9,90.96,30.27,1.99,60.97,4.68,92.37,6.95,7.25-4.95,5.31-8.69,5.04-16.88-.37-11.46-.65-25.98-.88-37.97Z"/>
        <path class="cls-9" d="m180.75,83.99c-23.94-3.35-46.78-7.34-70.75-7.94-16.89-.42-33.1.75-49.75,6.87-14.19,5.21-27.64,13.58-38.91,23.68-5.1,4.57-3.67,12.35-4.1,17.85-.61,7.82-.89,15.26-1.1,23.03-.11,4.04-.07,7.86-.07,11.99,0,4.14-1.2,8.54-.95,12.79.25,4.26,2.44,6.74,6.41,8.69.65.32,1.71.63,2.42.95,58.72.58,119.59.29,182.51,1.64,6.3-31.02,13.73-61.28,21.9-90.97-15.78-3.77-31.69-6.34-47.59-8.57Z"/>
        <g>
          <path class="cls-4" d="m92.81,91.88c-4.37.88-8.79,2.28-12.96,3.51-10.29,3.01-21.39,6.66-31.37,8.86-9.93,2.19-17.04-.55-26.33-1.03-5.6-.29-12.78-.53-18.13,2.04-5.34,2.56-3.56,7.12-3.78,10.96-.21,3.85-.71,7.14.88,10.39.89,1.81,2.68,2.82,4.44,3.8,8.34,4.64,17.42,8.63,27.14,10.99,7.3,1.77,15.53,2.83,22.49,4.37,6.99,1.54,12.57,4.04,19.31,4.96,12,1.64,21.89,6.32,33.48,9.16,15.91,3.9,31.88,7.93,47.82,12.87,6.73,2.09,13,3.87,20.27,5.48,7.32,1.61,14.86,5.05,22.62,6.46,3.69.67,7.93,1.24,11.82.95,6.12-.47,11.6-2.87,17-5.35,14.61-6.72,27.99-14.18,43.09-20.55,12.08-5.1,27.98-8.09,24.31-22.17-.9-3.47-3.73-6.75-6.49-9.33-3.92-3.66-5.73-1.35-10.67.17-13.21,4.07-24.72-1.48-35.73-6.17-15.01-6.4-28.98-12.31-43.57-18.22-19.09-7.72-39.36-9.41-59.92-11.34-9.55-.9-18.55-1.82-27.89-2.52-5.97-.45-11.91.54-17.82,1.74Z"/>
          <path class="cls-5" d="m92.27,75.44c-4.37.93-8.7,2.29-12.9,3.52-10.89,3.19-21.94,5.75-32.59,9.14-7.63,2.43-15.6,5.32-22.9,7.67-7.29,2.34-13.72,3.98-20.27,7.49-3.11,1.66-3.74,4.44-2.66,6.56,1.08,2.12,2.7,2.91,4.45,3.93,8.25,4.8,17.29,8.63,26.98,10.94,7.28,1.74,15.41,2.73,22.31,4.26,6.94,1.54,12.47,3.96,19.16,4.88,11.91,1.64,21.72,6.23,33.2,9.09,15.75,3.93,31.54,7.92,47.28,12.94,6.65,2.12,12.88,3.72,20.03,5.46,7.19,1.74,14.66,4.99,22.27,6.65,3.62.79,7.81,1.37,11.69,1,6.1-.59,11.63-2.95,17.02-5.47,19.59-9.19,38.7-19.15,59.29-26.68,3.34-1.22,7.13-2.72,6.42-5.98-.32-1.45-1.97-2.12-3.33-2.82-7.65-3.92-16.64-6.77-24.26-10.33-7.57-3.53-13.92-7.61-21.37-10.88-15.07-6.63-29.77-12.81-44.73-19.03-18.82-7.82-39.03-9.44-59.48-11.42-9.5-.92-18.41-1.92-27.74-2.54-5.96-.39-11.91.39-17.84,1.65Z"/>
        </g>
        <path class="cls-6" d="m299.99,29.88c-.76-2.71-1.74-3.73-5.22-4.45-28.15-5.81-57.41-6.58-85.02-11.65-10.88-2-22.72-3.4-33.4-5.89-2.96-.69-6.2-1.08-9.29-1.35-16.57-1.45-34.13-2.35-50.19-3.07-15.9-.71-29.49-4.4-45.16-3.26-5.56.4-10.04,1.04-12.94,6.35-2.91,5.32-3.08,12.38-3.74,18.37-1.05,9.53-3.75,19.62-4.82,29.27-1.07,9.72-.52,19.1-.55,28.8,0,.46.02.91.27,1.29.25.38.72.58,1.16.75,3.32,1.3,6.89,2.68,10.55,3.12,6.41.78,12.21.88,18.32,2.69,10.65,3.16,21.48,5.6,32.79,8.21,15.37,3.55,31.69,6.06,47.81,8.94,11.91,2.13,23.02,4.91,35.43,6.88,15.8,2.51,31.35,8.14,46.96,12.49,8.41,2.35,16.54,4.64,25.15,6.68,6.66,1.58,13.71,2.51,20.11,4.86,1.72.63,3.16-.01,3.73-2.08.57-2.06,1.03-4.5.77-7.52-.26-3.02,1.03-7.23,1.86-10.79,1.33-5.71,1.46-11.7,1.53-17.61.17-14.08.5-28.08.68-42,.08-6.51-.2-13.39,1.54-19.85.8-2.98,2.43-6.45,1.67-9.17Z"/>
        <g>
          <path class="cls-4" d="m72.27,26.86c-2.4,9.13-4.93,18.48-5.65,27.85-.71,9.44.48,18.3,4.1,26.89.34-7.59.63-15.22,1-22.72.28-5.71.59-11.55,1.64-17.17,1.78-9.59,5.85-19.62,7.41-28.81,1.11-6.54-2.11-3.05-3.98.89-1.87,3.95-3.37,8.67-4.53,13.07Z"/>
          <path class="cls-4" d="m126.86,35.04c-2.32,8.68-4.61,17.46-5.22,26.39-.61,8.99.73,17.39,4.64,25.47.18-7.17.4-14.38.68-21.48.22-5.41.38-10.92,1.32-16.27,1.62-9.11,5.71-18.58,7.12-27.34,1.01-6.24-2.24-2.97-4.11.79-1.87,3.76-3.32,8.25-4.44,12.44Z"/>
          <path class="cls-4" d="m98.75,31.65c-1.96,9.23-4.15,18.59-4.93,27.89-.49,5.74-.07,11.68.96,16.99,1.03,5.33,1.79,9.76,4.38,14.37.46.83,1.28,1.24,2.31.97-.82-4.5-2.62-7.33-2.97-12.2-.35-4.85.36-10.45.6-15.89.24-5.41.49-11.52,1.43-17.22,1.15-7.04,2.05-14.03,2.87-21.19.54-4.77,2.27-9.99,5.94-14.07,1-1.11,2.44-2.66,1.79-3.47-.65-.81-1.75.22-2.4.84-3.9,3.73-7.07,7.73-8,12.58-.67,3.5-1.22,6.93-1.96,10.39Z"/>
          <path class="cls-4" d="m249.66,58.04c-2.45,9.31-5.47,18.26-6.11,27.71-.39,5.83.78,11.44,2.79,16.82,2.02,5.4,3.75,9.95,8.08,14.33.78.78,2.44,1.37,3.76,1.08-1.64-4.44-4.79-7.16-5.66-12.07-.87-4.89-.18-10.3-.21-15.74-.02-5.42.03-11.23,1.19-16.98,1.44-7.11,2.34-13.89,3.06-21.38.48-4.99,3.17-10.48,8.22-14.03,1.38-.97,3.47-2.52,2.51-3.5-.95-.98-2.79.13-3.69.67-5.35,3.19-10.46,7.11-11.67,12.38-.87,3.8-1.37,7.23-2.29,10.72Z"/>
          <path class="cls-4" d="m151.21,73.41c-.67-9.46-1.7-18.6-.56-28.07.69-5.79,2.73-11.55,5.53-16.89,2.79-5.32,5.02-9.86,9.73-14.24.84-.78,2.4-1.29,3.56-.97-2.17,4.4-5.47,7.23-7.1,12.08-1.64,4.86-1.99,10.39-2.93,15.81-.95,5.44-2,11.48-1.99,17.21.02,7.14-.28,13.87-.88,21.43-.41,5.08,1.29,10.62,5.45,14.21,1.14.98,3.02,2.58,1.94,3.54-1.07.96-2.67-.24-3.43-.79-4.56-3.31-8.79-7.37-9.01-12.73-.16-3.84-.05-7.02-.3-10.59Z"/>
          <path class="cls-4" d="m183.72,82.73c-.6-9.81-1.47-19.4-.33-29.17.69-5.97,2.67-11.93,5.41-17.43,2.74-5.48,4.84-10.17,9.46-14.75.82-.82,2.3-1.31,3.45-.96-2.12,4.57-5.31,7.55-6.92,12.56-1.61,5.02-1.96,10.73-2.91,16.35-.95,5.63-1.98,11.95-2.02,17.88-.05,7.4-.42,14.47-1,22.24-.39,5.23,1.23,10.9,5.37,14.71,1.13,1.04,2.96,2.67,1.89,3.63-1.07.96-2.58-.28-3.34-.87-4.56-3.52-8.54-7.74-8.77-13.22-.17-3.93-.08-7.27-.31-10.98Z"/>
          <path class="cls-4" d="m219.31,53.5c-2.09,9.97-4.75,18.06-5.24,29.53-.1,2.31-.2,21.24,6.77,21.63.44.02.52-.18.62-.48,2.06-5.87.76-11.33.64-17.21-.12-5.86-.1-11.93.95-17.86,1.29-7.32,1.79-14.97,2.66-22.15,1.09-8.97,7.75-14.9,12.97-22.6-2.24-.39-3.61.2-5.51,1.8-1.91,1.61-4.54,3.5-6.08,5.69-4.95,7.01-6.12,13.72-7.79,21.66Z"/>
        </g>
        <path class="cls-4" d="m305.63,134.37c4.98-20.29,5.54-41.04,5.55-61.44,0-9.12-1.23-18.9-2.49-27.99-.43-3.13-.87-7.69-1.88-10.43-1.01-2.73-2.23-3.53-4.18-5.4-30.74,29.15-20.81,73.97-13.15,109.03,6.97,1.91,13.92,5.33,16.15-3.77Z"/>
      </g>
      <g>
        <path class="cls-7" d="m107.32,108.58c1.28,2.58,1.56,5.55.78,8.28-.22.78.2.9-.39,1.51-.52.53-1.45.62-2.2.38-.75-.24-1.34-.75-1.87-1.27-.53-.53-1.02-1.09-1.66-1.5-.76-.48-1.77-.82-2.04-1.62-.17-.52.06-1.08.45-1.5.46-.49,6.88-4.39,6.93-4.28Z"/>
        <path class="cls-8" d="m51.18,192.83c1.56.18,3.14.53,4.69.6,1.25.06,2.88-.27,3.63.92,1.23,1.94.69,3.92-1.75,4.79-1.3.46-2.74.48-4.14.47-5.06-.04-10.11-.43-15.13-1.02,3.22-1.7,6.55-3.84,10.22-6.06.83.1,1.65.21,2.48.31Z"/>
        <path class="cls-7" d="m1.78,164.71c.28-2.09.72-4.16,1.28-6.21.42-1.54.61-3.29,2.16-4.33,1.17-.79,2.86-.44,4.17.13,3.36,1.47,3.41,3.07,3.71,6.15.23,2.38-.1,4.65.45,7.01.65,2.77,1.77,5.69,3.23,8.22,2.64,4.57,6.46,8.6,11.1,11.68,1.71,1.13,3.54,2.14,5.54,2.8,1.82.59,3.74.88,5.65,1.15,3.21.45,6.42.83,9.64,1.21-3.67,2.22-7,4.37-10.22,6.06-1.22-.14-2.45-.23-3.67-.4-.53-.08-1.05-.16-1.58-.24-8.47-1.37-16.21-6.3-21.87-11.89-1.71-1.69-3.35-3.41-4.94-5.18-3.64-4.05-5.32-11.05-4.63-16.15Z"/>
        <path class="cls-7" d="m73.53,129.96c2.03-4.95,5.32-9.65,10.22-12.64,3.23-1.97,7.24-3.26,11.2-2.89,5.51.5,10.81,4.71,10.81,9.76,0,1.59-.17,3.25.55,4.7.9,1.82,2.98,2.93,4.97,3.84,4.69,2.14,9.7,4.05,14.84,5.16,3.52.77,7.83,2.64,9.31,5.8.72,1.53.29,3.6-1.39,4.33-1.23.54-2.7.22-4.02-.1-6.31-1.55-12.72-3.65-19.12-4.8-.95-.17-2.13,0-2.53.79-1.03,2.02,15.17,6.12,17.1,7.31,2.36,1.46,3.44,4.98,1.1,6.46-5.1,3.24-14.6-3.04-20.72-1.43-6.93,1.82-9.37,8.08-10.12,13.84-.42,3.22-.53,6.47-.51,9.7.02,3.21.66,6.74.01,9.87-1.17,5.7-5.99,10.17-10.28,14.29-1.16,1.12-2.33,2.25-3.65,3.22-1.62,1.2-3.82,1.67-5.39,2.86-.51.39-.75.97-1.28,1.33-.85.58-2.05.55-2.95,1.07-1.1.65-2,.85-2.88,1.87-2.68,3.07-2.76,7.27-2.73,11.15.02,1.78.23,3.88,1.97,4.77.41.21.87.33,1.28.55,1.09.59,1.55,1.75,1.89,2.84.42,1.35.68,2.98-.41,3.99-.96.89-2.54.9-3.93.84-8.31-.34-11.36-10.8-12.05-16.65-3.86-32.69,6.31-61.74,18.69-91.84Z"/>
        <path class="cls-8" d="m95.49,189.1c.08,2.13.16,4.25.18,6.35.08,8.21-2.14,15.83-2.56,23.98-.25,4.95-1.57,8.99,1.96,13,1.02,1.16,1.86,2.7,1.23,4.06-1.97,4.23-8.67,2.26-11.03-.15-3.05-3.11-3.6-6.5-3.74-10.47-.14-3.97-3.06-13.07-8.56-13.48-.56-.04-1.09.08-1.61.25.74-.25,1.81-1.93,2.37-2.48.78-.77,1.57-1.66,2.47-2.31,1.68-1.22,3.59-2,5.11-3.45.48-.46.95-.95,1.57-1.25.49-.23,1.05-.33,1.58-.49,2.09-.65,3.54-2.41,4.24-4.27.22-.58.39-1.2.82-1.68.3-.34.7-.58,1.08-.85,1.27-.89,2.38-2.06,3.06-3.37.39-.76,1.85-2.69,1.82-3.39Z"/>
        <path class="cls-7" d="m82.6,114.02c2.1-1.37,4.95-2.85,7.58-3.16,2-.23,4.06-.73,6.01-.38,4.42.82,8.54,1.93,11.5,5.23,1.77,1.98,3.21,4.26,3.69,6.75.67,3.48-.62,7.14-3.09,9.92-2.47,2.78-6.02,4.71-9.82,5.79-1.44.41-2.93.71-4.45.79-3.77.2-7.52-.95-10.72-2.73-3.2-1.78-6.04-4.3-7.21-7.49-.98-2.68-.69-5.66.55-8.25,1.24-2.59,3.39-4.8,5.95-6.48Z"/>
        <path class="cls-8" d="m78.79,114.02c3.18-.16,6.42.64,9.05,2.24.75.46,1.02.15,1.46.85.38.62.16,1.42-.36,1.96-.51.54-1.26.85-2,1.1-.74.25-1.51.47-2.17.86-.78.46-1.49,1.18-2.42,1.13-.61-.04-1.13-.43-1.43-.89-.36-.55-2.26-7.23-2.12-7.24Z"/>
        <g>
          <path class="cls-2" d="m94.1,194.52c-9.09,13.17-29.72,12.56-28.48,31.92"/>
          <path class="cls-2" d="m125.33,153.02c.76-.36,1.77-.08,2.33.5.57.58.75,1.38.72,2.15"/>
          <path class="cls-2" d="m123.56,155.05c-.06,0-.12,0-.18,0,.92.13,1.66.84,1.89,1.64.23.8.02,1.66-.43,2.39"/>
          <path class="cls-1" d="m133.26,142.48c.54-.18,1.35-.18,2.07,0,.72.18,1.31.54,1.5.91"/>
          <path class="cls-2" d="m131.13,145.08c.68-.2,1.46,0,1.98.44.52.43.79,1.08.8,1.71.01.59-.19,1.19-.56,1.68"/>
          <path class="cls-2" d="m69.07,233.67c1-.08,2.03.33,2.62,1.05.59.71.73,1.71.34,2.53"/>
          <path class="cls-2" d="m66.69,235.92c1.23.72,1.77,2.24,1.21,3.45"/>
          <path class="cls-2" d="m93.97,234.5c1.45,0,2.77,1.15,2.82,2.43"/>
          <path class="cls-2" d="m91.02,236.29c-.03.08-.16-.07-.07-.1.09-.04.18.03.25.1.84.87,1.25,2.05,1.11,3.19"/>
        </g>
        <path class="cls-2" d="m111.21,126.7c-.14,1.86-1.27,3.53-2.38,5.12-.91,1.31-1.87,2.67-3.29,3.55-.93.58-2.01.92-3.09,1.23-5.11,1.43-10.92,1.91-15.66-.31-2.69-1.26-4.46-2.95-6.66-4.81"/>
        <path class="cls-2" d="m105.13,131.08c-1.06.43-2.4.26-3.29-.41-.89-.67-1.27-1.82-.95-2.82-.13,1.25-.69,2.5-1.76,3.32-1.07.82-2.69,1.13-3.95.57"/>
        <path class="cls-3" d="m96.12,123.71c.12.4-.05.94-.8,1.34-.8.42-1.69-.07-.69-1.48.53-.75,1.32-.44,1.49.14Z"/>
        <path class="cls-3" d="m106.49,123.08c.24.9-1.06,2.11-1.41,1.23-.03-.09-.04-.19-.05-.29-.04-1.07,1.13-2.03,1.46-.93Z"/>
        <path class="cls-10" d="m101.92,126.98c-.05.34-.52.69-.7.96-.07.1-.13.21-.23.3-.1.08-.24.14-.37.12-.12-.02-.21-.1-.3-.18-.19-.17-.37-.33-.56-.5-.15-.13-.31-.29-.28-.47.03-.21.29-.33.52-.42.51-.18,1.33-.63,1.8-.15.11.11.14.23.13.35Z"/>
        <path class="cls-2" d="m89.24,118.67c.29-.51.03-1.14-.35-1.61-.76-.92-1.95-1.49-3.14-1.91-2.13-.75-4.43-1.13-6.72-1.11"/>
        <path class="cls-2" d="m87.31,119.42c.2-.15.24-.42.15-.64-.09-.22-.27-.39-.46-.56-.81-.71-1.82-1.34-2.96-1.31-.15,0-.31.02-.42.11"/>
        <path class="cls-2" d="m97.19,123.61c-1.57-.33-2.71-.33-4.31-.21"/>
        <path class="cls-2" d="m107.31,122.59c-1.26.21-2.48.63-3.58,1.24"/>
      </g>
    </g>
  </g>
</svg>